<?xml version="1.0" encoding="utf-8"?>
<!-- Generator: Adobe Illustrator 25.4.1, SVG Export Plug-In . SVG Version: 6.00 Build 0)  -->
<svg version="1.1" id="Capa_1" xmlns="http://www.w3.org/2000/svg" xmlns:xlink="http://www.w3.org/1999/xlink" x="0px" y="0px"
	 viewBox="0 0 76 305.3" style="enable-background:new 0 0 76 305.3;" xml:space="preserve">
<style type="text/css">
	.st0{fill:#676767;}
</style>
<path id="contorno_x5F_botella" class="st0" d="M39,305.3c-8.4-0.5-16.9-1.3-25.5-1.4c-9-0.1-12.8-4-12.9-14.4
	c-0.2-12.5,1.7-25.1,2.1-37.7c0.4-13.4,0.2-26.9,0-40.3c-0.2-9.8-0.9-19.5-1.3-29.3c-0.5-12.8-0.6-25.5-1.3-38.3
	c-0.5-9.9,1.2-19.2,5.3-28c6.8-14.7,10-30.2,11-46.4C17,58.9,19.9,48.4,21,37.8c0.7-6.7-0.8-13.7-0.2-20.4c0.3-3.6-0.3-6.5-1.3-9.9
	c-1-3.5,3.8-7.4,9.4-7.4C35.9-0.1,43,0.3,50,1.2c2,0.3,5,2.9,5.2,4.6c0.4,4.5-0.8,9-1.1,13.6c-0.2,2.6-0.1,5.2,0.2,7.8
	c2.6,21.8,4.6,43.8,8.1,65.4c1.5,9.1,5.7,17.9,9.2,26.6c4.2,10.6,4.8,21.5,4.2,32.7c-1,20.4-2,40.7-2.7,61.1
	c-0.4,10.2-0.7,20.5-0.3,30.8c0.4,9.7,2.2,19.4,2.6,29.2c0.3,7.5-0.4,15.2-1.5,22.7c-0.7,4.7-3.8,7.8-9.2,8
	C56.2,304.1,47.7,304.7,39,305.3z"/>
</svg>
